<svg id="visual" viewBox="0 0 900 600" width="900" height="600" xmlns="http://www.w3.org/2000/svg" xmlns:xlink="http://www.w3.org/1999/xlink" version="1.1"><rect x="0" y="0" width="900" height="600" fill="#001122"></rect><path d="M0 73L8.8 75.2C17.7 77.3 35.3 81.7 53 79.2C70.7 76.7 88.3 67.3 106 61.8C123.7 56.3 141.3 54.7 159 52.2C176.7 49.7 194.3 46.3 212 51.8C229.7 57.3 247.3 71.7 265 69.5C282.7 67.3 300.3 48.7 318 43.3C335.7 38 353.3 46 371 47C388.7 48 406.3 42 423.8 46C441.3 50 458.7 64 476.2 65.7C493.7 67.3 511.3 56.7 529 49.5C546.7 42.3 564.3 38.7 582 39.8C599.7 41 617.3 47 635 51.8C652.7 56.7 670.3 60.3 688 59.5C705.7 58.7 723.3 53.3 741 55.7C758.7 58 776.3 68 794 66.8C811.7 65.7 829.3 53.3 847 53.2C864.7 53 882.3 65 891.2 71L900 77L900 0L891.2 0C882.3 0 864.7 0 847 0C829.3 0 811.7 0 794 0C776.3 0 758.7 0 741 0C723.3 0 705.7 0 688 0C670.3 0 652.7 0 635 0C617.3 0 599.7 0 582 0C564.3 0 546.7 0 529 0C511.3 0 493.7 0 476.2 0C458.7 0 441.3 0 423.8 0C406.3 0 388.7 0 371 0C353.3 0 335.7 0 318 0C300.3 0 282.7 0 265 0C247.3 0 229.7 0 212 0C194.3 0 176.7 0 159 0C141.3 0 123.7 0 106 0C88.3 0 70.7 0 53 0C35.3 0 17.7 0 8.8 0L0 0Z" fill="#FFFFFF" stroke-linecap="round" stroke-linejoin="miter"></path></svg>